<svg xmlns="http://www.w3.org/2000/svg" viewBox="0 0 313.2 298.8"><circle fill="#FFF" cx="52.6" cy="128.4" r="2.9"/><circle fill="#FFF" cx="237.7" cy="46.3" r="5.9"/><circle fill="#FFF" cx="34" cy="99.7" r="5.8"/><circle fill="#FFF" cx="78.2" cy="220.7" r="5.8"/><circle fill="#FFF" cx="275.1" cy="96.9" r="3.8"/><circle fill="#FFF" cx="55.1" cy="202.2" r="2.4"/><circle fill="#FFF" cx="263.7" cy="117.9" r="2.4"/><g fill="#FFF"><path d="M151.7 228.5l-.2-.7c-.1-.3-.1-.5-.1-.7 0-.5.1-1.1.3-1.6l.2-.6-.6-.1c-26.3-3.5-48.3-17.1-60.2-37.2-2.4-4.1-4.4-8.2-5.9-12.2 1.9-1.2 3.1-3.3 3.1-5.6 0-3.7-3-6.7-6.7-6.7h-.1c-5.9-27.1 2-55 21-74.9 1 .7 2.3 1 3.6 1 3.7 0 6.7-3 6.7-6.7 0-2.6-1.5-4.9-3.8-6 3-8 9.8-15.1 18.4-19.2.8-.4 1.8-.2 2.4.4.8.8 1.6 1.8 2.3 2.8l.3.5.4-.4c.6-.6 1.1-.9 1.8-1.2l.6-.2-.4-.5c-.9-1.2-1.8-2.3-2.8-3.3-1.7-1.7-4.2-2.1-6.3-1.1-9.5 4.5-17.1 12.5-20.2 21.6-3.5.2-6.2 3.1-6.2 6.7 0 1.1.2 2.1.8 3.1-20 20.8-28.2 50.1-22 78.5-2 1.2-3.3 3.4-3.3 5.8 0 3.7 3 6.7 6.7 6.7h.3c1.8 4.7 3.9 9.1 6.3 12.9 12.5 21 35.4 35.2 62.8 38.8l.8.1zM105.3 79.3c.3-.1.4-.1.7-.1.6 0 1 .1 1.4.4 1.2.5 1.9 1.7 1.9 2.9 0 1.8-1.5 3.3-3.3 3.3-.6 0-1.2-.2-1.8-.5-.7-.4-1.1-1.2-1.3-1.6-.2-.3-.2-.7-.2-1.2 0-1.5 1.1-2.9 2.6-3.2zm-22 93.2c-.5.3-1.1.5-1.8.5h-.2c-1.8-.1-3.1-1.5-3.1-3.3 0-1.1.5-2.1 1.4-2.6.6-.5 1.3-.6 1.9-.6 1.8 0 3.2 1.4 3.2 3.3 0 1.1-.5 2.1-1.4 2.7zm58.9-108.2v.6l.6-.1c19.8-4.7 40.5-2.1 58.4 7.4 11.9 6.2 19.5 13.6 22.5 21.9-2.2 1.2-3.5 3.4-3.5 5.8 0 2.9 1.9 5.5 4.7 6.4.3 8.1 1.3 16.7 2.8 25l.1.6.6-.2c.7-.3 1.4-.5 2.1-.5h.6l-.1-.6c-1.5-7.8-2.5-16.1-2.8-24.2 3-.7 5.2-3.4 5.2-6.5 0-3.6-2.9-6.6-6.5-6.7-3.3-9.2-11.5-17.3-24.2-24-18.7-9.9-40.2-12.6-60.7-7.6l-.6.2.3.6c.3.5.5 1.2.5 1.9zm83 32.6c.6-.3 1.1-.4 1.7-.4h.5c1.6.2 2.9 1.5 2.9 3.2 0 1.5-1 2.9-2.6 3.2-.6.2-1.4.1-2-.2-1.2-.6-2-1.8-2-3-.1-1 .5-2.1 1.5-2.8zm-53 160.9v-.5c0-.2.1-.4.1-.7v-.5h-38.2c-.3-1.2-1-2.3-1.9-3.2 4.8-7.9 11.8-15 20.6-21.2l.4-.3-.3-.4c-.5-.6-.9-1.1-1.2-1.9l-.2-.6-.5.4c-9.3 6.4-16.6 13.9-21.7 22.4-.5-.1-1.1-.2-1.6-.2a6.7 6.7 0 0 0 0 13.4c3.1 0 5.7-2.1 6.4-5h38.4l-.2-.6c-.1-.4-.1-.7-.1-1.1zm-41.4 1c-.5 1.4-1.7 2.3-3.2 2.3-1.8 0-3.3-1.5-3.3-3.3s1.5-3.3 3.3-3.3h.6c.7.1 1.4.4 1.8 1 .3.3.6.8.8 1.3.1.4.2.7.2 1.1-.1.3-.1.6-.2.9zm121.7-89.5c-1.1-4.1-2.6-6.9-4.7-9 .3-1 .3-2 .1-2.9-.3-1.8-1.3-3.3-2.7-4.1-2-1.3-4.6-1.5-6.5-.6-.4-.5-.8-1-1.1-1.6-.9-1.5-2.1-4.5-3.3-8.9l-.3-1.1-.8.6c-.7.3-1.3.5-2 .6h-1l.3 1c1.3 4.3 2.6 7.8 3.7 9.9.8 1.4 1.8 2.5 3 3.7.5.5 1.1.5 1.6.5s1-.3 1.5-.8c.4-.6 1.8-.7 2.9 0 .7.4.9 1.2 1 1.5.1.9 0 1.4-.1 1.6-.5.8-.4 2 .3 2.6 1.2 1.1 2.9 3 4 6.6-.1.1-.2.1-.4.2-1 .4-1.5 1.5-1 2.5l.1.1c.6 3.8.4 7.2-.6 10.1v.1c0 .1-.1.2-.1.4-4 10.8-15.7 19.9-24.8 25.7l-.7.5.5.8c.4.5.7 1 1 1.8l.3 1.1.9-.6c9.8-6.2 22.4-16.2 26.6-28.3l.1-.1v-.2c0-.1.1-.2.1-.3 1-3.3 1.3-6.9.7-10.6.4-.3.7-.5 1.1-.8.2-.6.4-1.3.3-2zm-40.5 45l-.3-1.1-.8.6c-2.8 1.5-5.6 2.7-8.5 4-10.2 4.3-21.3 6.9-33 7.5-.8 0-1.5.5-1.8 1.2-.3.7-.1 1.6.4 2.1 3.8 4.2 8.4 12.9 8.5 23.2v1l1-.2c.6-.1 1.2-.1 2.1.2l1 .3v-1c0-8.1-2.6-16.6-7.1-23 10.6-.9 20.9-3.4 30.5-7.6 3-1.3 6-2.7 8.9-4.2l1-.5-.9-.8c-.5-.6-.8-1.1-1-1.7zm-55 8.3c-1.8-.1-3.5 1-4.2 2.7-.2.5-.4 1.2-.4 1.9 0 .3 0 .7.1 1.1.2.9.7 1.7 1.6 2.5.8.7 1.8 1 2.9 1 2.6 0 4.6-2 4.6-4.6s-2-4.6-4.6-4.6z"/><path d="M133.2 61.8c-.7.9-1 1.9-1 2.9 0 2.6 2 4.6 4.6 4.6 2.5 0 4.5-1.9 4.6-4.5v-.1c0-1-.3-1.9-.8-2.6-.9-1.3-2.3-2-3.8-2-.3 0-.7 0-1.1.1-.9.2-1.8.8-2.5 1.6zm46.7 191.9c-.9-.4-1.9-.6-2.9-.3-1.6.4-2.9 1.5-3.4 3-.2.6-.2 1.1-.2 1.5 0 .4.1.7.2 1.2l.1.3c.7 1.9 2.4 3.1 4.4 3.1 2.6 0 4.6-2 4.6-4.6-.1-1.8-1.1-3.4-2.8-4.2zM231 132.2c-.8-.1-1.7.1-2.7.6-1.4.8-2.4 2.3-2.4 3.9 0 2.4 1.9 4.4 4.4 4.6h.2c1 0 1.9-.3 2.6-.8 1.3-.9 2-2.2 2-3.8.1-2.3-1.6-4.3-4.1-4.5zm-10.7 77c-.9-.9-2-1.3-3.3-1.3-2.6 0-4.6 2-4.6 4.6 0 .3 0 .7.1 1.1.2.9.7 1.7 1.6 2.5.8.7 1.8 1 2.9 1 2.6 0 4.6-2 4.6-4.6 0-.2 0-.4-.1-.7-.1-1-.6-1.9-1.2-2.6z"/></g><path fill="#FFF" d="M313.2 298.8H0V0h313.2v298.8zM3.9 295h305.5V3.8H3.9V295z"/></svg>